<?xml version="1.0" standalone="no"?>
<!DOCTYPE svg PUBLIC "-//W3C//DTD SVG 20010904//EN"
 "http://www.w3.org/TR/2001/REC-SVG-20010904/DTD/svg10.dtd">
<svg version="1.0" xmlns="http://www.w3.org/2000/svg"
 width="512.000000pt" height="512.000000pt" viewBox="0 0 512.000000 512.000000"
 preserveAspectRatio="xMidYMid meet">
<metadata>
Created by potrace 1.14, written by Peter Selinger 2001-2017
</metadata>
<g transform="translate(0.000000,512.000000) scale(0.100000,-0.100000)"
fill="#000000" stroke="none">
<path d="M2857 5084 c-1 -1 -45 -5 -97 -8 -52 -4 -106 -9 -120 -11 -88 -13
-115 -19 -205 -40 -189 -45 -386 -120 -536 -205 -39 -22 -73 -40 -75 -40 -7 0
-158 -105 -229 -159 -33 -25 -108 -92 -166 -149 -371 -358 -604 -850 -646
-1362 -12 -155 -7 -341 13 -490 8 -58 19 -79 50 -90 13 -5 24 -13 23 -17 -1
-5 0 -10 1 -13 10 -25 9 -65 -3 -79 -33 -38 -25 -66 24 -88 33 -14 55 -85 33
-104 -26 -21 -19 -50 43 -189 9 -19 17 -37 18 -40 10 -36 146 -263 201 -336
30 -39 33 -48 22 -62 -17 -20 -330 -333 -350 -350 -13 -10 -22 -9 -52 9 -19
11 -49 23 -66 25 -68 11 -92 -7 -390 -305 -158 -157 -294 -298 -304 -312 -9
-14 -14 -33 -10 -42 7 -20 57 -38 74 -27 9 6 88 -67 257 -236 217 -217 243
-246 233 -264 -14 -26 5 -57 39 -63 21 -4 65 36 327 297 332 332 340 343 315
425 -6 21 -19 49 -29 61 -18 22 -17 23 171 211 l189 189 116 -77 c275 -183
552 -290 893 -347 62 -10 212 -20 309 -20 101 0 280 11 304 19 6 2 27 6 46 9
112 16 307 69 420 113 624 243 1094 748 1291 1385 17 55 33 110 35 122 45 227
57 337 57 501 0 100 -8 243 -18 300 -6 37 -16 91 -21 125 -39 221 -164 530
-301 743 -159 248 -402 491 -649 649 -226 145 -522 263 -757 303 -17 3 -39 8
-47 10 -16 4 -63 10 -173 20 -68 7 -255 13 -260 9z"/>
</g>
</svg>
